# xmcd
#
# Track frame offsets:
#	150
#	16200
#	40078
#	62493
#	75325
#	92697
#	116791
#	139740
#	162454
#	188091
#
# Disc length: 2747 seconds
# Revision: 0
# Processed by: cddbd v1.5.2PL0 Copyright (c) Steve Scherf et al.
# Submitted via: dBpowerAMP V12.0
#
DISCID=760ab90a
DTITLE=Various Artist - Keeping The Blues Alive Volume 1
DYEAR=2012
DGENRE=Blues
TTITLE0=The Terry B3er4 - Gig Blue
TTITLE1=Lisa Mann - Surrender To The Blues
TTITLE2=Bobby BlackHat Walters and Lary Berwald - Put On Your Red Shoes
TTITLE3=Alison Joy Williams - Blues Sure Get Me
TTITLE4=RB Stone - What I Used To Have
TTITLE5=Neil Taylor - My Daddy Was The Postman
TTITLE6=Dave Sadler - Fourth Street Ruckus
TTITLE7=WL Johnson - Half The Man
TTITLE8=Roger K Osborne - Animals Get The Blues Too
TTITLE9=Chet Chandler - Test Drive That Woman
EXTD=
EXTT0=
EXTT1=
EXTT2=
EXTT3=
EXTT4=
EXTT5=
EXTT6=
EXTT7=
EXTT8=
EXTT9=
PLAYORDER=
